<?xml version="1.0" standalone="no"?>
<!DOCTYPE svg PUBLIC "-//W3C//DTD SVG 20010904//EN"
 "http://www.w3.org/TR/2001/REC-SVG-20010904/DTD/svg10.dtd">
<svg version="1.0" xmlns="http://www.w3.org/2000/svg"
 width="1920.000000pt" height="1080.000000pt" viewBox="0 0 1920.000000 1080.000000"
 preserveAspectRatio="xMidYMid meet">
<metadata>
Created by potrace 1.16, written by Peter Selinger 2001-2019
</metadata>
<g transform="translate(0.000000,1080.000000) scale(0.100000,-0.100000)"
fill="#000000" stroke="none">
<path d="M0 10255 c0 -300 3 -545 6 -545 3 0 45 28 93 63 192 140 435 280 697
402 515 240 753 388 943 589 35 36 35 36 -852 36 l-887 0 0 -545z"/>
<path d="M5560 10791 c0 -18 45 -64 76 -77 40 -17 97 -18 127 -3 27 14 87 70
87 81 0 4 -13 8 -30 8 -16 0 -30 -5 -30 -11 0 -5 -20 -19 -45 -30 -39 -17 -48
-18 -77 -6 -18 8 -39 21 -47 30 -14 18 -61 24 -61 8z"/>
<path d="M10545 10755 c-136 -97 -317 -183 -491 -232 -92 -26 -112 -28 -284
-28 -207 0 -242 7 -455 96 -382 159 -546 196 -771 178 -182 -14 -405 -95 -585
-210 -140 -90 -399 -302 -399 -325 0 -33 29 -17 143 78 274 228 506 353 732
394 102 18 302 18 397 0 97 -19 249 -70 433 -146 231 -95 308 -113 495 -114
151 -1 188 4 330 41 76 19 201 69 290 115 70 36 300 185 300 194 0 2 -17 4
-37 3 -28 0 -54 -12 -98 -44z"/>
<path d="M15372 10759 c33 -59 143 -175 207 -218 163 -111 326 -165 706 -236
287 -53 433 -102 565 -190 87 -58 186 -154 262 -255 52 -71 86 -124 263 -420
136 -227 266 -382 392 -468 202 -137 402 -178 641 -133 263 51 473 165 684
371 108 106 108 106 108 848 l0 742 -1925 0 c-1926 0 -1926 0 -1903 -41z"/>
<path d="M2495 10310 c-250 -4 -284 -7 -309 -23 -55 -36 -56 -48 -56 -514 0
-387 2 -431 18 -463 20 -41 71 -70 125 -70 37 0 37 0 37 -59 0 -32 -5 -73 -11
-90 -10 -27 -9 -35 5 -49 19 -20 6 -28 162 101 118 97 118 97 222 97 103 0
103 0 85 -31 -10 -17 -35 -51 -55 -74 -21 -24 -38 -48 -38 -53 0 -6 12 -24 26
-41 26 -31 26 -31 10 -93 -8 -34 -26 -77 -39 -97 -38 -56 -358 -456 -369 -460
-24 -8 -156 101 -308 256 -173 176 -246 235 -370 299 -41 21 -78 43 -82 49 -9
12 -10 111 -2 143 4 14 14 22 28 22 43 0 120 48 149 92 22 34 27 53 27 104 0
59 2 63 35 88 45 34 46 68 4 125 -31 41 -32 46 -36 164 -3 111 -6 128 -34 184
-35 73 -69 101 -159 134 -55 20 -85 23 -190 24 -144 0 -186 -13 -264 -85 -66
-61 -91 -112 -135 -272 -38 -137 -42 -145 -83 -181 -214 -191 -245 -257 -194
-406 32 -93 32 -99 -3 -141 -57 -70 -123 -227 -176 -425 -110 -404 -133 -565
-114 -824 12 -177 61 -456 105 -598 13 -44 14 -63 4 -120 -27 -166 -46 -383
-100 -1163 -17 -244 -61 -461 -176 -870 -46 -163 -142 -473 -160 -517 -3 -7
10 -19 30 -27 40 -17 42 -23 22 -91 -15 -49 -102 -207 -117 -213 -5 -2 -9 -31
-9 -65 0 -62 0 -62 55 -84 30 -12 96 -34 146 -48 51 -15 104 -35 118 -44 14
-10 58 -34 96 -54 149 -74 152 -103 12 -94 -81 5 -99 10 -191 55 -55 28 -129
71 -164 96 -34 25 -64 46 -67 46 -3 0 -5 -13 -5 -29 0 -25 10 -35 73 -76 39
-25 110 -65 157 -88 85 -42 85 -42 307 -45 222 -3 222 -3 238 29 21 39 15 101
-12 137 -10 13 -47 40 -83 58 -88 48 -105 65 -156 166 -46 92 -53 131 -33 202
10 38 11 38 52 33 23 -2 49 -8 58 -12 14 -5 25 20 69 157 28 90 56 174 61 188
18 41 127 452 173 645 81 345 163 858 153 960 -5 47 -43 216 -86 385 -28 107
-37 178 -21 163 24 -22 139 -507 171 -718 11 -77 22 -142 25 -146 4 -8 52
-416 64 -554 18 -195 30 -474 37 -810 3 -187 9 -351 13 -365 3 -15 19 -31 37
-39 28 -12 31 -19 37 -72 4 -36 2 -75 -5 -101 -18 -60 -17 -291 0 -312 12 -14
58 -16 417 -16 457 0 441 -3 429 74 -4 22 -12 47 -19 55 -6 8 -58 37 -116 64
-184 86 -304 179 -319 250 -10 44 -5 53 43 69 39 13 39 13 36 708 -2 717 -12
1253 -29 1610 -17 347 -31 562 -41 635 -6 39 -19 194 -30 345 -16 223 -18 297
-10 384 10 99 39 218 60 240 5 5 47 -20 95 -55 190 -140 254 -177 363 -209 89
-27 205 -25 266 5 90 43 187 211 459 786 33 70 69 124 129 195 46 55 91 111
100 125 31 49 51 139 45 205 -4 49 -1 64 10 68 8 3 109 6 224 6 307 0 283 -42
287 502 2 278 -1 446 -7 468 -6 20 -24 49 -41 65 -31 30 -31 30 -468 30 -240
1 -563 -2 -717 -5z m1161 -61 c18 -20 19 -45 22 -465 3 -444 3 -444 -22 -469
-25 -25 -25 -25 -239 -25 -215 0 -215 0 -241 34 -14 19 -26 38 -26 42 0 4 23
41 51 81 77 112 52 148 -66 92 -75 -36 -113 -70 -151 -135 -26 -44 -38 -52
-49 -34 -12 20 -32 9 -63 -35 -32 -45 -32 -45 -164 -45 -133 0 -133 0 -240
-85 -59 -47 -109 -85 -112 -85 -3 0 -6 38 -6 85 0 85 0 85 -64 85 -60 0 -66 2
-90 31 -27 31 -27 31 -24 459 3 428 3 428 27 454 27 29 0 28 1017 34 417 2
421 2 440 -19z m-1959 -400 c7 -24 12 -82 12 -129 0 -47 0 -92 0 -101 1 -9 17
-36 36 -60 44 -56 44 -74 0 -90 -39 -14 -38 -13 -35 -86 4 -109 -62 -183 -150
-169 -48 8 -51 1 -58 -136 -5 -108 -5 -108 -36 -113 -17 -4 -54 -5 -81 -3 -50
3 -50 3 -46 118 3 112 4 116 37 161 43 59 55 114 47 220 -3 48 -3 98 0 111 4
16 32 44 72 74 73 53 139 142 158 211 14 53 28 51 44 -8z m1463 -372 c0 -7
-12 -30 -26 -51 -26 -38 -26 -38 -50 -15 -27 25 -24 33 20 60 36 22 56 24 56
6z m-105 -107 c3 -5 1 -27 -4 -47 -6 -21 -15 -57 -21 -80 -6 -22 -30 -69 -55
-102 -49 -67 -54 -81 -27 -81 42 0 119 115 135 201 8 45 14 59 26 57 28 -6 26
-86 -4 -142 -20 -38 -23 -51 -14 -62 10 -13 15 -12 34 6 32 30 38 25 31 -27
-9 -65 -37 -117 -104 -193 -31 -36 -69 -81 -83 -99 -24 -30 -30 -33 -61 -27
-19 3 -64 24 -99 45 -61 38 -64 41 -61 75 4 45 34 141 61 195 12 22 50 76 84
118 34 43 78 99 96 126 33 46 53 57 66 37z m-1418 -481 c106 -56 188 -124 329
-274 160 -171 364 -335 399 -321 19 7 20 35 0 42 -8 4 -15 10 -15 16 0 14 349
448 365 454 8 3 40 -10 72 -30 32 -19 70 -38 86 -42 15 -3 29 -10 32 -14 5 -8
-90 -217 -203 -445 -111 -224 -185 -337 -248 -375 -72 -45 -243 -13 -388 72
-78 46 -276 193 -352 262 -52 46 -77 56 -90 34 -5 -7 11 -28 40 -53 48 -41 48
-41 33 -87 -52 -152 -59 -205 -53 -388 3 -96 8 -188 11 -205 3 -16 2 -35 -3
-42 -15 -23 -322 -38 -505 -24 -202 15 -437 68 -437 99 0 5 9 35 20 68 64 183
84 357 60 514 -6 36 -12 133 -15 215 -4 136 -6 150 -22 150 -16 0 -18 -11 -21
-90 -2 -49 2 -133 8 -186 7 -52 12 -156 13 -230 2 -151 3 -144 -120 -529 -36
-113 -68 -216 -72 -229 -4 -14 -12 -26 -17 -28 -26 -9 -114 495 -114 647 0 65
24 254 46 362 29 148 131 499 169 584 26 59 26 59 39 28 35 -81 153 -137 288
-136 137 1 216 43 303 162 35 48 35 48 98 43 34 -2 82 0 107 5 70 15 74 14
157 -29z m-1325 -4498 c136 -32 140 -34 132 -78 -3 -21 -9 -41 -13 -45 -9 -10
-171 21 -219 42 -37 17 -43 23 -37 42 4 13 9 31 11 41 7 22 24 21 126 -2z
m-66 -141 c32 -12 85 -24 118 -27 48 -5 60 -10 64 -27 3 -12 23 -55 44 -97 21
-42 38 -85 38 -95 0 -19 71 -70 157 -113 49 -24 85 -67 81 -95 -3 -18 -11 -21
-68 -24 -65 -3 -67 -2 -131 47 -93 70 -282 165 -359 180 -83 17 -138 39 -150
61 -7 13 4 40 48 114 64 108 64 108 158 76z m1422 -107 c-3 -48 -3 -48 -141
-57 -76 -5 -139 -7 -141 -5 -2 2 -6 24 -7 49 -4 45 -4 45 86 51 50 3 116 6
148 7 58 2 58 2 55 -45z m65 -119 c34 -40 172 -128 272 -174 104 -48 125 -64
125 -97 0 -23 0 -23 -382 -21 -383 3 -383 3 -383 128 0 69 3 137 8 152 7 27 7
27 135 31 70 1 144 4 165 5 29 2 42 -4 60 -24z"/>
<path d="M2399 9963 c-25 -29 5 -35 167 -33 784 11 879 14 882 33 4 17 -20 18
-517 16 -438 -1 -522 -4 -532 -16z"/>
<path d="M2404 9697 c-17 -10 -19 -37 -1 -37 132 -5 764 3 771 10 6 6 4 16 -4
26 -13 14 -50 16 -383 13 -203 -2 -375 -8 -383 -12z"/>
<path d="M5380 8864 c-83 -22 -172 -77 -245 -151 -80 -80 -90 -97 -70 -113 12
-10 27 1 84 62 38 40 94 88 125 107 58 35 176 71 232 71 68 0 182 -47 313
-129 203 -126 332 -169 471 -155 74 7 108 23 95 43 -5 9 -20 11 -44 7 -108
-18 -132 -18 -198 -1 -91 24 -213 81 -304 142 -183 124 -312 156 -459 117z"/>
<path d="M15112 7992 c-217 -3 -232 -7 -253 -70 -16 -48 -4 -1774 12 -1804 6
-10 25 -28 42 -38 31 -19 55 -20 568 -20 536 0 536 0 560 -26 13 -14 57 -49
97 -77 72 -51 72 -51 159 -216 103 -197 256 -466 325 -571 55 -82 135 -170
185 -201 88 -55 232 -79 472 -79 168 0 168 0 174 -67 9 -87 8 -385 -1 -442 -7
-44 -7 -44 -202 -142 -116 -57 -199 -93 -204 -88 -6 5 -33 45 -60 89 -152 240
-198 309 -210 319 -12 10 -93 -12 -176 -47 -14 -6 -117 -48 -230 -92 -229 -91
-250 -102 -250 -131 0 -11 51 -98 113 -192 62 -95 116 -178 121 -184 4 -7 0
-23 -8 -35 -26 -37 -19 -63 34 -126 35 -41 50 -69 50 -89 0 -56 68 -113 134
-113 41 0 47 -12 14 -27 -13 -6 -66 -31 -118 -56 -234 -111 -292 -245 -213
-492 40 -124 120 -281 317 -624 180 -312 321 -569 347 -628 21 -48 22 -49 74
-27 45 18 54 12 72 -49 19 -62 16 -87 -16 -142 -43 -74 -114 -142 -226 -216
-126 -83 -155 -115 -155 -174 0 -23 6 -47 13 -54 23 -19 155 -41 245 -41 93 0
196 22 272 59 73 34 427 310 438 342 9 23 -58 167 -107 232 -74 98 -114 173
-108 198 12 46 -115 439 -248 769 -29 72 -135 351 -135 356 0 3 26 2 59 -2 34
-4 89 -1 132 7 96 16 101 16 151 -19 85 -58 250 -130 351 -152 27 -6 83 -15
125 -21 141 -18 135 -15 129 -62 -6 -50 -33 -213 -127 -767 -39 -228 -82 -480
-95 -560 -13 -80 -31 -189 -40 -243 -17 -97 -15 -127 5 -127 18 0 29 41 55
205 14 88 33 207 43 265 17 105 17 105 486 108 259 1 474 -2 479 -7 4 -4 17
-64 27 -132 73 -476 65 -439 89 -439 27 0 29 13 14 94 -14 75 -44 267 -87 556
-15 96 -28 182 -31 190 -2 8 -23 134 -45 280 -38 248 -71 456 -107 679 -15 94
-15 94 45 155 32 34 71 83 86 109 66 115 111 309 151 642 13 110 29 232 34
270 21 145 34 441 22 511 -29 164 -124 267 -306 330 -90 31 -90 31 -132 190
-50 193 -89 306 -135 399 -74 146 -195 280 -306 338 -78 41 -94 57 -113 110
-13 36 -12 42 15 90 15 29 57 107 92 174 94 177 114 295 73 428 -17 56 -31 78
-92 141 -39 42 -93 87 -119 100 -52 27 -152 43 -261 44 -37 0 -84 7 -104 15
-110 46 -253 -23 -253 -123 0 -21 11 -43 31 -66 30 -35 30 -35 10 -74 -11 -21
-26 -74 -35 -118 -18 -98 -22 -107 -63 -170 -41 -62 -66 -139 -54 -163 9 -16
36 -33 74 -45 14 -4 17 -18 17 -81 0 -88 21 -163 55 -195 13 -12 52 -32 87
-44 58 -20 64 -25 76 -61 13 -39 29 -155 21 -155 -2 0 -85 -21 -184 -46 -128
-32 -209 -47 -281 -51 -101 -6 -101 -6 -189 93 -155 175 -439 523 -462 567
-12 23 -36 86 -53 140 -26 79 -42 110 -86 165 -54 67 -54 67 -54 773 0 697 0
707 -21 732 -11 15 -38 31 -61 38 -38 10 -409 10 -1056 1z m1072 -58 c9 -8 18
-25 21 -37 3 -12 4 -305 3 -652 -3 -630 -3 -630 -29 -633 -20 -2 -37 8 -75 48
-74 78 -149 132 -176 128 -35 -5 -37 -71 -3 -131 47 -85 48 -93 15 -127 -37
-37 -38 -59 -5 -90 30 -28 32 -40 6 -40 -11 0 -31 -14 -45 -31 -36 -43 -37
-135 -1 -198 14 -23 25 -47 25 -52 0 -5 -206 -9 -488 -9 -406 0 -491 2 -508
14 -19 14 -19 36 -22 900 -2 876 -2 886 18 906 20 20 32 20 634 20 545 0 616
-2 630 -16z m-72 -1351 c82 -81 160 -165 175 -186 21 -30 80 -179 119 -298 8
-22 -121 -159 -148 -159 -26 0 -96 50 -222 159 -93 80 -128 123 -113 138 4 3
15 -1 25 -10 10 -10 24 -17 30 -17 24 0 11 39 -23 69 -38 33 -43 52 -19 71 23
20 47 -10 113 -137 34 -65 63 -109 74 -111 30 -6 29 24 -1 71 -16 25 -37 67
-47 93 -17 45 -17 48 -1 60 27 19 16 39 -49 92 -63 50 -77 75 -50 86 12 4 36
-12 78 -50 34 -31 78 -64 99 -75 33 -17 37 -17 49 -2 12 14 9 19 -21 41 -72
53 -166 159 -203 229 -20 39 -37 74 -37 77 0 22 42 -12 172 -141z m1421 20
c37 -38 47 -57 57 -107 6 -32 10 -91 8 -130 -3 -66 -1 -71 18 -74 16 -2 23 4
27 20 8 30 59 68 102 75 49 8 70 -28 62 -104 -6 -60 -29 -101 -65 -118 -12 -5
-22 -15 -22 -22 0 -14 110 -171 137 -195 10 -9 27 -18 38 -20 18 -3 82 -105
84 -134 1 -7 -38 -31 -86 -55 -49 -24 -130 -72 -182 -107 -51 -34 -95 -62 -96
-60 -2 2 -8 38 -14 82 -15 103 -41 164 -75 171 -14 3 -37 7 -51 10 -15 3 -42
21 -62 39 -33 30 -37 39 -41 96 -5 71 1 80 59 80 24 0 39 5 43 16 10 27 -4 36
-53 32 -43 -3 -46 -1 -50 22 -3 28 -17 40 -47 40 -11 0 -29 6 -39 14 -18 13
-18 15 -1 60 10 26 29 60 43 77 29 34 63 118 63 155 0 70 53 184 85 184 7 0
33 -21 58 -47z m-937 -733 c75 -91 188 -224 250 -296 144 -167 132 -163 365
-123 93 15 175 31 180 35 15 9 120 33 145 34 20 0 19 -4 -17 -77 -46 -93 -59
-166 -59 -345 0 -69 -3 -133 -6 -142 -5 -14 -32 -16 -196 -16 -367 0 -451 35
-593 250 -106 161 -385 664 -385 695 0 6 13 18 29 28 16 9 51 42 78 72 26 30
53 53 60 52 6 -1 74 -76 149 -167z m1496 -141 c52 -26 138 -107 191 -178 109
-148 166 -296 243 -641 76 -336 97 -579 75 -857 -17 -211 -14 -203 -92 -231
-56 -20 -78 -22 -179 -18 -74 2 -145 11 -199 25 -109 29 -261 90 -261 105 0 7
12 23 26 37 38 34 80 132 99 230 9 46 23 116 30 154 8 39 23 140 35 225 11 85
27 200 35 255 27 195 27 205 10 212 -9 3 -20 2 -25 -3 -5 -5 -16 -74 -24 -154
-9 -80 -21 -172 -26 -205 -6 -33 -22 -134 -35 -225 -27 -187 -60 -341 -82
-385 -38 -76 -136 -146 -278 -198 -170 -63 -507 -150 -562 -145 -36 3 -40 6
-74 75 -47 95 -66 185 -45 217 9 15 108 69 263 146 136 67 255 125 263 130 13
6 16 73 20 481 4 413 7 483 23 545 32 126 95 198 265 303 82 51 225 120 250
121 7 0 31 -9 54 -21z m606 -940 c93 -37 147 -80 190 -151 51 -86 64 -168 52
-340 -21 -317 -71 -723 -111 -908 -42 -194 -101 -317 -190 -394 -69 -59 -208
-122 -329 -147 -80 -17 -141 -22 -260 -23 -183 -1 -309 19 -443 70 -89 34
-207 94 -207 105 0 4 73 10 163 13 458 19 662 51 761 120 133 91 213 253 270
541 44 223 51 306 51 590 0 267 -8 356 -41 484 -21 83 -16 85 94 40z m-1885
-366 c35 -54 91 -141 125 -193 34 -52 62 -100 62 -107 0 -6 -19 -22 -42 -36
-38 -21 -59 -25 -168 -30 -142 -6 -225 -27 -319 -82 -33 -19 -64 -35 -69 -35
-13 0 -222 319 -222 339 0 10 17 22 43 32 86 33 453 180 482 194 17 7 33 14
37 14 5 1 36 -43 71 -96z m82 -435 c3 -13 10 -45 15 -72 6 -27 26 -83 45 -124
19 -41 35 -78 35 -83 0 -4 -21 -15 -47 -25 -27 -9 -72 -27 -102 -40 -82 -37
-165 -55 -211 -48 -22 4 -40 10 -40 15 0 12 80 56 117 64 33 7 46 24 33 45
-11 18 -96 -12 -170 -62 -50 -33 -63 -38 -75 -28 -22 18 -19 33 14 64 27 26
131 66 172 66 22 0 37 26 23 40 -10 10 -132 -13 -167 -31 -12 -6 -32 -20 -44
-31 -24 -22 -43 -17 -43 13 0 26 70 70 150 94 62 19 77 32 67 59 -5 12 -14 11
-59 -6 -29 -11 -83 -35 -120 -55 -72 -38 -101 -40 -106 -7 -6 39 134 125 258
158 30 8 99 15 152 15 93 1 98 0 103 -21z m1689 -1106 c8 -13 55 -298 111
-667 65 -430 82 -551 78 -557 -6 -10 -920 -10 -927 0 -2 4 0 27 5 52 11 52 59
342 133 795 46 285 36 261 119 270 188 18 370 61 444 104 22 13 30 13 37 3z
m-1191 -1125 c32 -58 32 -58 3 -81 -16 -13 -62 -34 -104 -46 -92 -28 -157 -24
-183 11 -22 29 -34 78 -22 90 14 14 236 89 256 86 11 -1 32 -26 50 -60z m99
-139 c27 -35 71 -119 83 -156 8 -27 -14 -50 -170 -175 -217 -174 -312 -218
-478 -221 -51 0 -120 5 -154 13 -59 13 -63 16 -63 41 0 40 21 59 154 148 114
75 121 79 155 70 63 -17 86 -15 86 7 0 12 -8 21 -20 24 -11 2 -31 7 -44 12
-20 8 -21 12 -10 25 13 16 52 15 131 -2 21 -5 29 -2 35 11 8 22 -21 45 -57 45
-14 0 -34 6 -43 13 -15 11 -15 15 5 55 22 42 22 42 87 42 80 0 157 20 214 54
54 33 60 32 89 -6z"/>
<path d="M15153 7654 c-25 -25 -25 -25 -20 -367 5 -338 5 -341 27 -359 20 -16
49 -18 340 -18 175 0 326 3 335 6 41 16 45 48 45 372 0 318 -5 363 -40 382
-11 6 -149 10 -340 10 -321 0 -321 0 -347 -26z m665 -36 c7 -7 12 -42 12 -85
0 -77 -7 -86 -44 -58 -50 38 -88 13 -185 -121 -28 -40 -57 -74 -65 -77 -8 -3
-29 5 -47 19 -60 44 -80 36 -195 -78 -57 -56 -106 -100 -108 -97 -8 7 -9 486
-2 498 10 16 618 15 634 -1z m-38 -193 c16 -8 34 -24 40 -34 6 -12 10 -100 10
-215 0 -183 -1 -196 -19 -206 -21 -11 -587 -15 -615 -4 -11 4 -16 19 -16 44 0
35 8 46 115 149 63 61 122 111 130 111 9 0 33 -11 53 -25 20 -14 43 -25 52
-25 24 1 62 39 119 120 53 74 77 100 93 100 5 0 22 -7 38 -15z"/>
<path d="M15118 6658 c-14 -37 -3 -38 306 -38 305 0 332 3 319 36 -7 20 -618
21 -625 2z"/>
<path d="M15124 6461 c-2 -2 -4 -13 -4 -23 0 -17 15 -18 285 -18 248 0 286 2
292 15 3 9 3 18 0 21 -6 6 -567 11 -573 5z"/>
<path d="M17432 6427 c-19 -22 -26 -74 -11 -82 18 -12 51 33 47 63 -4 30 -20
38 -36 19z"/>
<path d="M18220 7789 c-231 -38 -440 -202 -541 -424 -30 -68 -31 -85 -1 -85
12 0 22 14 31 46 19 63 97 179 162 240 141 132 315 200 494 192 64 -3 70 -1
70 17 0 18 -7 20 -80 21 -44 1 -105 -2 -135 -7z"/>
<path d="M3584 6634 c-61 -104 -128 -155 -299 -227 -60 -25 -118 -39 -314 -78
-127 -25 -241 -65 -321 -114 -65 -40 -190 -169 -190 -197 0 -30 38 -22 55 12
27 52 111 125 191 167 85 45 180 73 343 104 209 40 401 121 489 208 51 50 126
167 116 182 -13 22 -34 5 -70 -57z"/>
<path d="M15265 4984 c-81 -19 -169 -51 -221 -80 -79 -43 -244 -171 -244 -188
0 -32 32 -23 87 25 171 149 345 217 509 198 110 -14 223 -79 260 -150 15 -30
54 -41 54 -16 0 24 -59 96 -107 132 -27 19 -77 44 -113 56 -63 20 -184 33
-225 23z"/>
<path d="M3827 4649 c-91 -26 -140 -52 -200 -107 -101 -94 -146 -188 -189
-396 -27 -134 -54 -181 -130 -223 -98 -56 -157 -146 -158 -239 0 -87 67 -195
156 -251 18 -12 18 -13 2 -25 -10 -7 -46 -29 -80 -48 -95 -53 -216 -178 -265
-275 -47 -92 -95 -246 -113 -361 -7 -43 -17 -84 -22 -90 -5 -7 -30 -17 -56
-23 -67 -17 -172 -82 -223 -139 -25 -27 -58 -75 -74 -108 -28 -57 -30 -64 -29
-184 2 -240 50 -951 74 -1095 53 -313 150 -494 326 -605 68 -43 69 -44 53
-105 -17 -66 -71 -308 -76 -342 -4 -28 -2 -33 14 -33 16 0 24 18 47 118 76
320 68 297 96 293 14 -2 269 -5 567 -8 543 -4 543 -4 552 -41 10 -36 48 -237
60 -317 5 -32 11 -41 29 -43 21 -3 23 -1 18 30 -3 18 -11 62 -16 98 -6 36 -20
107 -31 159 -11 52 -18 100 -15 107 3 7 20 15 38 19 51 11 124 51 147 81 23
29 40 85 38 123 -1 13 3 26 10 28 19 7 53 -35 53 -64 0 -27 -33 -332 -50 -463
-5 -36 -9 -77 -9 -92 -1 -28 -1 -28 534 -28 294 0 535 1 535 3 0 2 -16 59 -36
127 -49 172 -75 271 -134 510 -80 319 -120 421 -210 523 -85 97 -231 159 -415
177 -60 6 -135 15 -165 20 -30 5 -147 17 -259 25 -132 10 -213 21 -232 30 -23
12 -32 29 -49 86 -13 43 -18 75 -13 80 5 5 82 17 172 25 156 16 163 16 182 -2
19 -17 55 -19 572 -25 996 -13 2114 -11 2119 4 14 35 2 37 -282 37 -152 0
-291 3 -308 6 -31 6 -31 6 -12 43 10 20 25 61 33 91 9 30 45 159 82 285 37
127 79 277 95 335 16 58 40 146 54 195 69 243 71 253 60 282 -9 28 -9 28 -598
31 -656 2 -623 6 -653 -66 -9 -20 -27 -77 -41 -127 -44 -159 -69 -245 -137
-480 -37 -126 -70 -238 -72 -248 -3 -9 -7 -17 -10 -17 -3 0 -50 43 -106 95
-107 100 -162 135 -215 135 -17 0 -69 -18 -116 -40 -46 -22 -88 -40 -94 -40
-5 0 -40 30 -78 68 -61 58 -74 78 -102 149 -17 46 -39 111 -48 145 -8 35 -19
68 -24 73 -4 6 -27 73 -50 150 -73 245 -92 298 -132 380 -49 97 -78 136 -182
244 -45 46 -71 78 -59 72 12 -6 49 -11 82 -11 95 0 167 49 226 155 29 52 42
64 85 82 58 25 74 53 59 105 -5 18 -9 62 -9 99 0 57 3 69 25 89 34 32 81 134
95 208 15 74 8 181 -15 236 -22 53 -100 133 -157 162 -25 13 -49 28 -53 34
-15 24 -147 90 -218 109 -94 25 -179 25 -270 0z m593 -521 c0 -40 -7 -100 -16
-133 -32 -121 -39 -192 -25 -258 12 -59 12 -62 -9 -79 -12 -10 -35 -18 -50
-18 -20 0 -31 -8 -46 -35 -22 -42 -30 -43 -79 -9 -21 14 -44 23 -51 20 -27
-11 -13 -37 36 -68 54 -33 54 -42 8 -84 -38 -35 -64 -44 -123 -44 -67 0 -90
10 -132 58 -26 29 -35 34 -45 24 -8 -8 -9 -19 -2 -39 7 -21 5 -46 -8 -97 -10
-38 -18 -87 -18 -108 0 -31 3 -38 20 -38 27 0 25 -26 -5 -55 -33 -34 -77 -32
-141 4 -61 36 -146 126 -180 192 -29 59 -29 59 -1 59 13 0 42 14 64 30 32 24
48 47 71 103 17 39 33 96 37 124 6 43 13 57 36 74 34 24 37 49 8 67 -31 20
-59 90 -59 152 0 73 24 121 68 132 46 12 77 -6 132 -76 25 -33 51 -61 57 -63
6 -2 31 16 56 40 38 38 52 46 98 52 77 10 191 60 241 105 24 22 46 39 51 40 4
0 7 -33 7 -72z m-903 -797 c84 -132 160 -201 250 -227 51 -15 58 -15 99 1 55
21 84 70 84 144 0 27 5 53 10 56 14 9 123 -103 164 -169 59 -90 103 -189 131
-286 14 -52 37 -133 50 -180 13 -47 31 -104 39 -128 15 -42 15 -43 -7 -51 -31
-13 -181 -61 -188 -61 -3 0 -4 71 -1 158 4 180 -4 237 -33 237 -16 0 -19 -6
-16 -30 2 -16 4 -97 5 -180 0 -126 -3 -166 -23 -250 -38 -162 -104 -316 -155
-364 -22 -21 -26 -21 -307 -14 -284 8 -284 8 -281 53 3 48 52 361 77 495 35
187 36 215 9 215 -21 0 -31 -32 -49 -170 -24 -179 -31 -203 -58 -197 -105 26
-321 33 -442 15 -27 -4 -30 30 -11 162 33 230 91 430 163 552 48 82 150 171
258 224 83 41 169 67 188 56 5 -2 25 -30 44 -61z m3130 -497 c6 -16 -5 -61
-108 -424 -33 -118 -69 -248 -80 -288 -17 -64 -47 -168 -110 -382 -10 -36 -19
-66 -19 -67 0 -1 -15 -10 -32 -20 -43 -23 -341 -29 -1291 -25 -611 2 -688 4
-694 18 -14 37 7 39 434 44 417 5 417 5 425 40 5 19 22 78 38 130 16 52 48
160 70 240 23 80 71 246 107 370 35 124 73 253 83 288 9 35 21 66 25 70 6 6
303 12 948 20 173 2 198 0 204 -14z m-3831 -311 c-25 -170 -34 -605 -15 -708
12 -66 44 -136 84 -183 26 -32 26 -32 2 -104 -52 -154 -71 -272 -72 -438 0
-137 3 -163 23 -223 38 -108 76 -156 157 -197 70 -35 70 -35 305 -30 129 2
411 4 625 5 390 0 390 0 393 -37 5 -56 -20 -92 -83 -124 -50 -24 -71 -28 -213
-35 -273 -14 -907 -11 -983 5 -159 34 -299 143 -372 289 -20 41 -51 129 -67
194 -26 106 -38 189 -70 503 -13 128 -35 596 -35 745 0 139 9 165 87 250 54
59 95 88 166 116 72 28 76 27 68 -28z m1569 -100 c4 -10 18 -49 31 -86 30 -88
75 -163 122 -204 37 -33 37 -33 -18 -5 -34 17 -63 40 -76 62 -43 67 -75 100
-100 100 -45 0 -53 -60 -16 -120 14 -23 14 -25 -13 -45 -16 -11 -57 -41 -92
-67 -35 -27 -68 -48 -72 -48 -9 0 -71 151 -71 173 0 7 8 40 19 73 10 32 21 71
25 85 6 29 46 50 148 80 81 23 104 23 113 2z m-1082 -83 c23 -11 27 -18 22
-44 -3 -17 -10 -69 -15 -116 -6 -47 -16 -109 -23 -137 -11 -53 -12 -53 -50
-53 -36 0 -60 -21 -43 -37 3 -4 73 -6 154 -4 81 1 233 -3 337 -8 484 -26 417
-33 530 55 55 44 120 88 143 98 39 17 49 18 90 7 66 -17 105 -52 199 -177 45
-60 98 -123 118 -140 19 -17 35 -34 35 -38 0 -3 -27 -6 -60 -6 -51 0 -61 3
-71 23 -44 85 -141 177 -186 177 -31 0 -31 -36 0 -46 12 -3 31 -14 41 -23 32
-27 76 -93 76 -113 0 -26 -54 -25 -73 3 -28 39 -95 89 -111 83 -26 -10 -18
-31 19 -54 57 -35 46 -47 -44 -51 -73 -4 -83 -7 -113 -35 -37 -35 -36 -35
-438 -79 -554 -61 -742 -67 -831 -28 -52 23 -114 89 -140 149 -12 27 -23 86
-29 151 -11 116 -3 407 11 435 13 24 41 26 244 24 124 -2 189 -7 208 -16z
m1087 -164 c0 -6 -7 -2 -15 8 -8 11 -15 25 -15 30 0 6 7 2 15 -8 8 -11 15 -25
15 -30z m551 -76 c24 -16 86 -71 138 -123 75 -76 91 -98 84 -112 -8 -14 -17
-8 -61 39 -77 85 -179 169 -197 162 -27 -10 -16 -34 29 -65 54 -38 173 -157
192 -193 12 -24 10 -58 -3 -58 -3 0 -40 33 -82 73 -118 112 -229 166 -239 116
-2 -11 11 -21 40 -33 44 -17 163 -107 182 -138 19 -31 -2 -31 -41 0 -44 35
-79 47 -88 32 -12 -19 -35 -10 -92 32 -52 40 -173 184 -173 207 0 6 6 11 13
11 8 0 54 18 103 39 108 48 137 50 195 11z m-862 -49 c11 -32 21 -63 21 -70 0
-13 -106 -16 -114 -2 -6 10 53 131 64 131 4 0 17 -26 29 -59z m-190 -535 c13
-48 10 -53 -37 -65 -137 -37 -672 -92 -889 -91 -73 0 -75 4 -49 96 28 99 33
107 60 101 11 -3 48 -12 81 -21 70 -18 215 -20 329 -6 201 27 471 46 483 36 6
-6 16 -29 22 -50z"/>
<path d="M4210 3938 c-27 -45 -27 -88 0 -88 22 0 37 29 47 88 4 25 2 32 -11
32 -9 0 -25 -15 -36 -32z"/>
<path d="M5650 2455 c-9 -10 -10 -19 -3 -26 6 -6 142 -8 359 -7 341 3 349 3
349 23 0 20 -8 20 -346 23 -303 2 -348 0 -359 -13z"/>
<path d="M5560 2171 c-7 -14 -7 -22 0 -26 9 -5 152 -7 638 -5 8 0 12 9 10 23
-3 22 -3 22 -320 25 -306 2 -318 2 -328 -17z"/>
<path d="M16270 2762 c0 -18 -70 -240 -202 -641 -70 -214 -70 -214 -47 -232
13 -10 32 -21 42 -25 44 -14 -8 -132 -80 -177 -39 -24 -222 -75 -372 -103 -94
-17 -173 -52 -195 -87 -25 -37 -39 -117 -24 -134 35 -43 200 -120 402 -188
262 -88 415 -112 496 -77 42 18 46 23 62 78 23 81 28 107 43 236 13 110 34
212 49 236 5 9 13 9 26 2 10 -5 23 -10 29 -10 20 0 191 374 191 417 0 16 -43
93 -254 458 -48 83 -99 176 -114 207 -26 57 -52 76 -52 40z m37 -1032 c46 -23
85 -46 88 -50 7 -11 -25 -132 -39 -147 -13 -14 -89 -2 -142 23 -44 21 -144
111 -144 129 0 13 21 53 57 113 14 23 14 23 56 -1 23 -13 79 -43 124 -67z
m-206 -149 c72 -61 160 -101 221 -101 27 0 28 -2 28 -46 0 -25 -4 -64 -9 -87
-6 -23 -17 -76 -26 -118 -18 -89 -31 -99 -124 -99 -60 0 -230 39 -376 87 -149
48 -355 139 -370 164 -17 27 15 29 81 5 71 -26 404 -132 506 -160 62 -18 94
-20 102 -8 12 19 -19 35 -130 67 -200 57 -536 164 -547 175 -12 11 39 48 82
60 20 5 85 20 144 32 108 23 108 23 141 -16 43 -52 78 -32 44 24 -11 17 -10
22 2 30 24 16 31 12 74 -34 33 -36 44 -43 59 -35 25 14 21 31 -13 64 -29 27
-30 31 -14 42 31 23 52 14 125 -46z"/>
<path d="M13338 2561 c-93 -13 -194 -50 -343 -126 -378 -192 -700 -470 -746
-646 -17 -65 7 -114 76 -149 45 -23 60 -25 165 -24 63 1 133 6 155 12 279 74
487 164 665 291 126 89 264 236 314 335 69 135 51 243 -48 287 -49 21 -159 30
-238 20z m218 -59 c130 -67 58 -268 -168 -467 -248 -218 -660 -384 -927 -373
-104 4 -136 16 -167 63 -15 23 -15 28 2 71 91 238 656 635 1024 720 79 18 186
12 236 -14z"/>
<path d="M647 2050 c-57 -15 -108 -44 -153 -88 -55 -53 -107 -130 -100 -148
10 -25 35 -15 55 24 25 49 104 124 161 154 36 18 60 23 120 22 115 -1 153 -25
345 -218 168 -170 222 -207 340 -237 78 -20 234 9 248 45 12 32 -9 35 -68 11
-72 -29 -123 -31 -198 -6 -99 32 -163 80 -291 214 -129 138 -185 184 -255 211
-54 21 -153 29 -204 16z"/>
<path d="M9966 1784 c-73 -18 -204 -86 -288 -150 -91 -69 -288 -270 -288 -293
0 -34 18 -33 47 1 196 229 394 368 578 405 175 35 355 -32 543 -202 40 -37 68
-55 78 -51 25 10 13 30 -51 86 -122 106 -261 187 -365 210 -63 14 -184 11
-254 -6z"/>
<path d="M4573 1483 c-3 -7 -3 -17 -1 -23 2 -7 319 -12 978 -16 536 -4 977 -8
980 -11 2 -2 3 -325 1 -718 -3 -715 -3 -715 23 -715 26 0 26 0 28 718 3 717 3
717 118 717 111 1 115 2 118 23 2 12 -3 24 -10 27 -7 3 -512 6 -1122 7 -863 2
-1110 0 -1113 -9z"/>
<path d="M0 221 c0 -221 0 -221 510 -221 303 0 510 4 510 9 0 15 -140 139
-214 188 -192 129 -450 213 -734 239 -72 7 -72 7 -72 -215z"/>
</g>
</svg>
