<svg xmlns="http://www.w3.org/2000/svg" version="1.1" xmlns:xlink="http://www.w3.org/1999/xlink" xmlns:svgjs="http://svgjs.dev/svgjs" viewBox="0 0 2400 800" opacity="0.83"><defs><linearGradient x1="50%" y1="0%" x2="50%" y2="100%" id="sssurf-grad"><stop stop-color="hsla(206, 100%, 0%, 0.98)" stop-opacity="1" offset="0%"></stop><stop stop-color="hsla(0, 0%, 100%, 1.00)" stop-opacity="1" offset="100%"></stop></linearGradient></defs><g fill="url(#sssurf-grad)" transform="matrix(1,0,0,1,0,-158.16049194335938)"><path d="M 0 292.68689788803715 Q 357.034929400412 450 600 276.320964876163 Q 937.3661167879417 450 1200 290.5547839282589 Q 1462.1774329861757 450 1800 331.76506265918397 Q 2086.342631123595 450 2400 291.2311394562006 L 2400 800 L 0 800 L 0 340.84037498356525 Z" transform="matrix(1,0,0,1,0,55)" opacity="0.05"></path><path d="M 0 292.68689788803715 Q 357.034929400412 450 600 276.320964876163 Q 937.3661167879417 450 1200 290.5547839282589 Q 1462.1774329861757 450 1800 331.76506265918397 Q 2086.342631123595 450 2400 291.2311394562006 L 2400 800 L 0 800 L 0 340.84037498356525 Z" transform="matrix(1,0,0,1,0,110)" opacity="0.21"></path><path d="M 0 292.68689788803715 Q 357.034929400412 450 600 276.320964876163 Q 937.3661167879417 450 1200 290.5547839282589 Q 1462.1774329861757 450 1800 331.76506265918397 Q 2086.342631123595 450 2400 291.2311394562006 L 2400 800 L 0 800 L 0 340.84037498356525 Z" transform="matrix(1,0,0,1,0,165)" opacity="0.37"></path><path d="M 0 292.68689788803715 Q 357.034929400412 450 600 276.320964876163 Q 937.3661167879417 450 1200 290.5547839282589 Q 1462.1774329861757 450 1800 331.76506265918397 Q 2086.342631123595 450 2400 291.2311394562006 L 2400 800 L 0 800 L 0 340.84037498356525 Z" transform="matrix(1,0,0,1,0,220)" opacity="0.53"></path><path d="M 0 292.68689788803715 Q 357.034929400412 450 600 276.320964876163 Q 937.3661167879417 450 1200 290.5547839282589 Q 1462.1774329861757 450 1800 331.76506265918397 Q 2086.342631123595 450 2400 291.2311394562006 L 2400 800 L 0 800 L 0 340.84037498356525 Z" transform="matrix(1,0,0,1,0,275)" opacity="0.68"></path><path d="M 0 292.68689788803715 Q 357.034929400412 450 600 276.320964876163 Q 937.3661167879417 450 1200 290.5547839282589 Q 1462.1774329861757 450 1800 331.76506265918397 Q 2086.342631123595 450 2400 291.2311394562006 L 2400 800 L 0 800 L 0 340.84037498356525 Z" transform="matrix(1,0,0,1,0,330)" opacity="0.84"></path><path d="M 0 292.68689788803715 Q 357.034929400412 450 600 276.320964876163 Q 937.3661167879417 450 1200 290.5547839282589 Q 1462.1774329861757 450 1800 331.76506265918397 Q 2086.342631123595 450 2400 291.2311394562006 L 2400 800 L 0 800 L 0 340.84037498356525 Z" transform="matrix(1,0,0,1,0,385)" opacity="1.00"></path></g></svg>